<?xml version="1.0" standalone="no"?> <!DOCTYPE svg PUBLIC "-//W3C//DTD SVG 20010904//EN" "http://www.w3.org/TR/2001/REC-SVG-20010904/DTD/svg10.dtd"> <svg version="1.0" xmlns="http://www.w3.org/2000/svg" width="600.000000pt" height="698.000000pt" viewBox="0 0 600.000000 698.000000" preserveAspectRatio="xMidYMid meet"> <g transform="translate(0.000000,698.000000) scale(0.100000,-0.100000)" fill="#ffffff" stroke="none"> <path d="M2400 4187 c-3 -3 -32 -7 -65 -10 -33 -3 -61 -10 -63 -16 -2 -6 -8 -9 -13 -5 -5 3 -21 -5 -35 -18 -31 -28 -125 -148 -101 -130 15 13 15 11 -1 -26 -9 -22 -20 -38 -24 -36 -4 2 -10 -1 -14 -7 -4 -7 -3 -9 3 -6 9 6 23 -111 25 -200 0 -13 4 -23 9 -23 5 0 9 -5 9 -11 0 -5 -4 -7 -10 -4 -5 3 -7 0 -5 -8 5 -10 -20 -13 -132 -14 -77 0 -127 3 -113 7 22 7 23 8 4 9 -21 1 -22 6 -26 149 -4 141 -5 149 -33 192 -15 25 -28 50 -28 57 0 6 -3 12 -6 11 -25 -2 -41 4 -35 14 4 6 3 8 -4 4 -6 -3 -13 -2 -17 3 -3 5 2 14 11 19 13 7 7 9 -22 8 -21 0 -38 4 -37 9 2 12 -14 14 -134 20 -51 2 -92 1 -92 -3 1 -4 0 -9 -1 -12 -8 -17 -8 -130 0 -135 5 -3 7 -12 4 -19 -3 -8 0 -17 5 -21 6 -3 9 -11 5 -16 -3 -6 4 -21 15 -33 14 -15 19 -30 15 -42 -5 -16 -4 -16 5 -4 6 9 11 10 11 3 0 -6 9 -14 20 -18 11 -3 19 -9 19 -13 -1 -4 -1 -14 0 -22 1 -11 3 -12 9 -2 6 9 13 8 28 -6 10 -10 28 -16 39 -14 17 3 18 1 5 -8 -13 -10 -12 -11 3 -6 10 3 35 0 57 -8 24 -8 37 -9 33 -3 -4 6 0 8 10 4 9 -3 18 -1 20 6 3 7 4 -18 3 -55 l-1 -68 -37 0 c-21 0 -39 1 -40 2 -2 2 -14 -5 -28 -15 -27 -19 -45 -22 -35 -7 12 19 -6 10 -38 -20 -18 -17 -38 -28 -47 -24 -8 3 -11 2 -7 -2 3 -4 -2 -19 -13 -34 -11 -16 -20 -33 -20 -40 0 -7 -7 -10 -15 -6 -13 4 -14 2 -5 -14 7 -14 7 -20 0 -20 -5 0 -10 -5 -10 -11 0 -5 4 -7 10 -4 6 4 8 -5 5 -22 -13 -67 54 -163 127 -185 24 -6 46 -17 50 -23 5 -6 8 -5 8 4 0 8 6 11 16 7 8 -3 34 4 57 16 23 12 45 23 50 24 4 1 10 3 15 4 4 1 11 2 15 1 5 -1 6 3 2 9 -4 6 -12 7 -19 3 -7 -4 -3 0 7 10 11 9 16 17 12 17 -5 0 0 9 10 20 10 11 14 20 10 20 -5 0 -4 5 3 12 7 7 12 44 12 95 l0 83 108 0 c71 -1 113 -5 124 -13 14 -12 17 -32 15 -145 -2 -128 -1 -131 21 -142 53 -24 77 0 77 78 0 38 4 57 14 60 8 3 11 0 7 -6 -3 -6 3 -30 13 -55 11 -25 17 -48 14 -51 -3 -3 -1 -11 5 -19 6 -7 8 -24 5 -37 -5 -17 -3 -21 6 -15 10 5 11 2 6 -14 -4 -12 -2 -21 4 -21 6 0 8 -12 4 -32 -4 -22 -3 -29 5 -24 8 5 10 2 6 -8 -3 -9 -1 -16 6 -16 7 0 9 -8 5 -20 -3 -11 -2 -20 2 -20 9 0 38 -88 34 -103 -1 -5 3 -6 9 -2 5 3 10 -1 10 -10 0 -37 100 -106 149 -102 16 1 27 5 24 10 -2 4 5 11 16 15 11 4 20 10 20 15 0 4 7 20 15 35 8 15 18 46 21 67 4 22 10 44 12 48 3 5 6 29 7 55 3 56 23 122 37 122 6 0 7 5 4 10 -3 6 -1 10 5 10 6 0 9 4 6 9 -3 5 1 11 9 15 8 3 15 0 15 -7 0 -8 4 -6 10 3 5 8 10 10 10 4 0 -6 15 -10 33 -10 25 1 32 -3 31 -16 -1 -10 2 -18 6 -18 11 0 27 -60 34 -131 6 -60 29 -149 38 -149 5 0 8 -6 7 -12 -3 -26 1 -38 14 -35 6 1 11 -6 11 -15 -1 -10 2 -16 6 -13 5 3 20 1 35 -5 19 -7 31 -7 40 0 7 6 21 7 30 3 13 -4 16 -3 11 5 -4 7 -1 12 9 12 9 0 14 3 12 8 -2 4 10 21 27 37 16 17 23 22 16 12 -8 -11 -10 -21 -4 -25 11 -9 12 -102 0 -102 -5 0 -4 -6 2 -13 8 -10 6 -13 -9 -13 -10 0 -19 5 -19 10 0 5 -6 1 -14 -9 -12 -16 -17 -17 -45 -6 -17 8 -31 16 -31 20 0 10 -71 15 -147 10 -29 -2 -53 -7 -53 -12 0 -4 5 -5 12 -1 7 4 8 3 4 -4 -4 -6 -12 -9 -19 -6 -13 5 -84 -55 -80 -67 1 -4 -7 -15 -17 -24 -11 -10 -20 -24 -20 -32 0 -7 -5 -13 -11 -13 -6 0 -9 -9 -6 -20 3 -11 2 -20 -2 -20 -10 0 -4 -76 10 -127 6 -24 16 -43 22 -43 6 0 8 -3 4 -6 -3 -3 2 -14 11 -25 9 -11 17 -25 17 -32 0 -7 7 -12 15 -12 8 0 15 -7 14 -16 -1 -10 6 -15 20 -14 12 1 26 -4 31 -12 6 -7 33 -17 61 -22 51 -10 78 -6 144 22 14 6 33 11 42 10 10 0 16 3 13 7 -2 3 5 14 16 23 24 21 24 32 -2 50 -12 9 -16 17 -9 20 6 3 5 4 -2 3 -7 -2 -24 6 -38 18 -14 11 -19 14 -12 6 14 -16 16 -34 4 -26 -5 3 -18 -3 -28 -13 -11 -9 -25 -16 -32 -13 -6 2 -12 -2 -12 -8 0 -9 -3 -10 -13 -1 -8 6 -17 8 -20 5 -11 -11 -78 6 -71 18 5 7 2 8 -6 3 -18 -11 -31 16 -17 35 11 13 10 13 -5 1 -10 -7 -15 -17 -12 -22 3 -5 3 -9 0 -9 -2 0 -14 15 -25 34 -64 103 -10 228 107 250 23 4 41 0 60 -12 14 -9 23 -11 19 -4 -12 18 7 15 34 -6 25 -20 59 -25 59 -10 0 15 58 -24 63 -42 2 -9 2 -76 -1 -148 -2 -73 -1 -143 2 -157 7 -29 45 -42 76 -25 20 11 21 17 18 140 -2 70 0 126 4 124 6 -4 7 8 9 79 0 13 5 17 17 12 9 -3 14 -3 10 0 -9 10 24 45 35 38 6 -3 7 -1 3 5 -5 8 2 11 23 9 17 -2 34 -6 37 -10 3 -3 12 -3 20 0 8 3 17 -2 20 -11 3 -9 10 -14 14 -11 4 3 10 -2 13 -10 4 -9 1 -12 -9 -8 -9 3 -4 -7 10 -22 17 -18 24 -35 20 -47 -3 -10 -2 -18 3 -18 4 0 6 -40 3 -89 -3 -49 -2 -87 2 -85 3 2 12 -9 19 -24 7 -15 29 -40 50 -55 47 -34 115 -36 184 -6 44 19 48 20 65 4 10 -9 31 -18 47 -21 70 -10 113 -12 109 -5 -3 4 16 13 41 19 25 7 63 26 84 43 36 28 38 29 44 9 3 -11 4 -24 1 -28 -3 -5 0 -17 7 -26 15 -21 74 -12 81 13 3 9 6 79 7 156 2 188 16 221 96 231 12 1 27 -4 33 -11 6 -8 18 -11 26 -8 8 3 14 -1 14 -11 0 -9 3 -16 8 -16 6 0 9 -12 13 -67 1 -10 1 -72 1 -138 -1 -66 -1 -128 0 -137 2 -21 42 -32 68 -18 22 12 21 7 25 147 1 56 6 114 9 128 5 18 3 24 -4 20 -11 -7 -13 5 -4 29 3 9 10 13 15 10 5 -3 6 3 2 12 -5 13 -3 15 8 9 12 -8 12 -6 0 9 -8 9 -10 16 -5 14 5 -1 22 6 37 16 25 17 32 17 67 6 39 -13 58 -42 59 -90 2 -140 10 -220 24 -246 16 -32 115 -92 126 -77 3 4 15 13 26 19 11 6 21 18 23 26 4 20 -30 56 -47 50 -9 -3 -11 0 -6 8 6 10 4 12 -8 7 -24 -9 -35 18 -36 91 0 35 -3 67 -5 71 -3 4 -1 24 4 44 4 22 4 39 -1 43 -5 3 -9 11 -8 17 2 21 -13 57 -22 51 -5 -3 -9 2 -9 10 0 8 -9 22 -21 30 -12 8 -18 19 -15 24 3 6 -2 8 -13 5 -10 -3 -30 1 -42 9 -30 18 -102 16 -126 -3 -9 -8 -14 -9 -11 -4 4 6 -2 11 -12 11 -10 0 -17 -3 -15 -7 3 -3 -6 -15 -18 -27 -19 -18 -24 -19 -41 -7 -12 9 -16 20 -12 31 6 15 4 15 -10 3 -14 -11 -18 -11 -21 -1 -3 6 -9 10 -13 7 -5 -3 -25 1 -45 9 -22 10 -33 11 -29 4 5 -7 2 -9 -7 -6 -8 3 -23 0 -34 -8 -22 -17 -54 -18 -75 -3 -12 8 -10 9 8 4 12 -4 22 -2 22 4 0 5 9 8 20 6 11 -2 20 -1 20 3 0 4 14 13 32 21 17 8 45 27 61 42 16 16 34 26 40 22 5 -3 7 -2 4 4 -3 5 5 26 18 46 15 22 22 42 18 53 -4 12 -3 15 5 10 10 -6 17 15 10 28 -2 2 6 14 17 26 11 12 15 21 10 20 -20 -4 -30 1 -17 8 18 12 4 40 -28 57 -26 13 -30 13 -56 -8 -16 -12 -35 -27 -41 -34 -10 -9 -22 -8 -54 5 -32 12 -47 13 -71 4 -16 -6 -37 -8 -46 -5 -13 4 -14 3 -3 -5 10 -7 6 -11 -17 -14 -19 -3 -38 2 -52 14 -22 18 -70 19 -111 3 -10 -3 -20 -2 -24 4 -3 6 -12 11 -18 11 -7 0 -6 -4 3 -10 8 -5 11 -10 5 -10 -5 0 -23 11 -39 25 -30 26 -60 31 -85 16 -8 -5 -10 -14 -6 -21 6 -9 4 -11 -5 -5 -8 5 -11 2 -7 -11 3 -11 8 -37 12 -58 3 -21 13 -49 22 -62 8 -13 11 -29 7 -35 -4 -8 -3 -9 4 -5 7 4 12 2 12 -4 0 -6 7 -18 15 -27 8 -8 12 -19 9 -25 -4 -6 -3 -8 3 -5 5 4 20 -3 31 -14 12 -11 22 -17 22 -14 0 3 6 0 14 -7 8 -7 12 -16 9 -20 -2 -4 4 -5 13 -1 12 4 15 3 10 -6 -4 -6 -4 -11 1 -10 4 1 10 1 13 -1 8 -3 64 -12 83 -13 9 -1 17 -5 17 -9 0 -4 5 -8 11 -8 5 0 7 4 4 10 -3 6 1 7 10 4 12 -5 13 -10 4 -20 -6 -7 -12 -58 -13 -112 -3 -99 -28 -198 -48 -186 -4 3 -8 2 -7 -3 4 -23 -5 -33 -53 -58 -57 -30 -121 -36 -141 -15 -9 9 -9 11 0 6 13 -7 76 68 65 78 -4 4 0 6 8 4 8 -1 14 3 12 10 -1 6 3 12 9 12 5 0 7 5 3 12 -5 7 -2 9 9 5 12 -4 14 -2 10 10 -5 12 -3 14 7 8 8 -5 11 -4 7 2 -7 11 20 28 36 24 5 -1 6 2 3 7 -3 5 4 19 15 30 11 12 16 22 12 22 -4 0 -2 4 5 9 13 8 15 26 10 78 -2 17 -5 19 -15 11 -10 -8 -12 -7 -7 6 5 12 2 15 -12 9 -11 -4 -15 -3 -11 4 4 6 -4 14 -18 17 -14 4 -23 11 -20 16 3 5 0 12 -6 16 -8 4 -9 3 -5 -4 4 -7 3 -12 -3 -12 -5 0 -12 4 -15 8 -7 12 -176 13 -176 1 0 -14 -48 -11 -52 3 -3 7 -7 3 -10 -9 -4 -17 -2 -20 10 -16 10 4 13 2 8 -5 -4 -7 -17 -12 -28 -12 -12 0 -19 -3 -15 -6 8 -8 -25 -44 -40 -44 -7 0 -13 -5 -13 -11 0 -5 4 -7 10 -4 6 3 7 -1 4 -9 -3 -9 -10 -14 -14 -11 -8 5 -25 -70 -21 -94 1 -7 -2 -10 -8 -7 -5 4 -13 1 -17 -5 -4 -8 -3 -9 4 -5 7 4 14 -4 18 -21 3 -15 10 -41 15 -57 5 -15 7 -32 4 -36 -2 -4 4 -15 15 -25 26 -24 16 -36 -23 -28 -46 8 -59 22 -52 52 3 14 2 21 -2 14 -4 -6 -8 30 -8 81 0 105 -18 160 -71 213 -30 30 -116 65 -141 56 -29 -10 -23 22 10 51 19 17 39 44 42 59 4 15 12 24 18 20 6 -4 8 0 4 10 -3 9 -2 19 3 22 14 9 12 99 -2 113 -7 7 -8 12 -3 12 5 0 -4 14 -20 30 -16 17 -36 30 -44 30 -14 0 -14 1 -1 10 12 8 10 10 -10 11 -14 1 -37 2 -52 3 -16 1 -28 -2 -28 -6 0 -4 -9 -8 -19 -8 -11 0 -22 -6 -24 -12 -3 -7 -6 2 -6 20 -1 18 3 31 8 27 5 -3 12 -1 16 5 3 5 1 10 -6 10 -6 0 -9 8 -6 20 3 10 -1 24 -9 31 -8 6 -14 16 -14 21 0 12 39 63 48 63 4 0 13 4 20 8 15 10 32 0 32 -19 0 -8 6 -13 13 -11 7 1 11 -6 9 -18 -2 -16 -1 -17 7 -5 10 14 15 7 12 -13 -1 -5 3 -6 9 -2 5 3 10 3 10 -2 0 -18 69 -37 137 -38 39 0 69 3 67 7 -3 5 0 8 6 8 7 0 25 9 41 21 16 11 29 15 29 9 0 -6 4 -9 9 -6 5 3 14 -1 21 -9 7 -8 19 -15 26 -15 8 0 14 -4 14 -10 0 -13 79 -3 99 13 12 9 13 9 7 0 -4 -8 -1 -13 8 -14 29 -3 34 -4 42 -11 13 -14 24 -8 17 9 -4 11 -3 14 6 9 6 -4 11 -4 10 1 -1 4 0 13 1 18 2 6 4 71 5 145 1 148 9 194 32 186 8 -3 12 -2 9 3 -3 4 2 17 10 27 9 10 12 12 8 4 -6 -12 -3 -12 12 2 29 25 121 11 111 -17 -4 -9 -1 -12 8 -9 19 8 32 -44 40 -156 3 -52 8 -108 9 -123 2 -29 48 -76 74 -77 7 0 11 -3 9 -7 -3 -5 22 -8 56 -8 41 0 61 4 63 13 1 7 0 8 -3 2 -10 -20 -19 -9 -19 25 0 44 -26 74 -59 67 -14 -2 -26 -3 -26 -1 -1 4 -18 240 -19 272 -1 9 -5 15 -9 12 -5 -2 -14 8 -20 23 -30 71 -174 118 -251 81 l-35 -17 -6 46 c-5 41 2 77 29 168 13 41 4 82 -19 89 -10 4 -19 11 -19 16 0 5 -5 9 -11 9 -5 0 -7 -5 -3 -11 4 -8 -1 -9 -17 -3 -13 5 -36 8 -50 9 -19 0 -25 4 -21 15 3 8 -5 4 -17 -10 -17 -18 -21 -20 -17 -7 4 11 2 16 -5 12 -5 -4 -8 -20 -5 -35 2 -16 1 -31 -2 -35 -3 -3 -8 -18 -10 -33 -2 -14 -7 -32 -13 -38 -5 -6 -6 -14 -2 -17 3 -4 0 -14 -7 -22 -11 -13 -9 -21 10 -47 18 -25 20 -30 6 -25 -11 4 -15 3 -11 -4 4 -5 19 -9 33 -8 64 5 60 16 62 -186 0 -141 -2 -185 -12 -185 -9 0 -9 -3 0 -12 8 -8 6 -18 -9 -40 -23 -31 -42 -38 -32 -10 5 14 3 13 -10 -3 -14 -17 -16 -18 -22 -4 -3 9 -5 88 -3 177 2 96 -1 158 -6 154 -5 -3 -7 2 -3 11 4 11 -3 27 -19 44 -19 20 -23 22 -18 7 7 -17 6 -17 -9 -5 -10 8 -20 11 -24 7 -3 -3 0 -6 8 -6 8 0 5 -6 -8 -15 -21 -15 -53 -11 -53 6 0 11 -65 23 -116 21 -57 -2 -67 -5 -82 -22 -8 -8 -11 -9 -7 -2 3 6 1 12 -4 12 -6 0 -11 -5 -11 -11 0 -6 -7 -17 -15 -25 -8 -9 -15 -11 -15 -5 0 6 -5 11 -11 11 -5 0 -8 -4 -5 -8 3 -5 -2 -19 -10 -31 -12 -17 -19 -19 -29 -11 -9 8 -15 8 -20 0 -4 -6 -1 -9 6 -8 6 2 14 -3 17 -11 3 -9 0 -11 -9 -6 -8 5 -11 5 -7 0 4 -4 1 -23 -7 -42 -8 -19 -12 -40 -8 -46 4 -6 1 -7 -7 -2 -9 5 -10 2 -5 -14 5 -16 3 -20 -9 -15 -14 6 -20 17 -18 36 1 3 -5 12 -13 18 -11 9 -15 9 -15 1 0 -6 5 -11 12 -11 6 0 8 -3 5 -7 -4 -3 -16 2 -27 12 -14 13 -17 22 -10 35 6 12 5 17 -5 17 -7 0 -11 -6 -8 -14 3 -7 0 -13 -6 -13 -6 0 -11 4 -11 10 0 5 -7 7 -15 4 -8 -4 -15 -1 -15 6 0 6 -4 9 -9 6 -4 -3 -16 0 -25 7 -16 12 -16 14 -2 26 12 10 18 9 33 -8 9 -12 22 -21 28 -21 5 0 3 5 -5 11 -12 9 -12 10 3 5 35 -11 60 36 35 63 -11 11 -10 12 1 6 9 -5 12 -4 7 3 -4 7 -14 12 -22 12 -8 0 -13 4 -10 9 7 10 -22 24 -34 16 -5 -3 -11 -1 -15 4 -4 7 -15 7 -31 1 -14 -6 -30 -7 -36 -4 -7 4 -8 2 -4 -4 5 -8 0 -12 -13 -12 -12 0 -21 -5 -21 -11 0 -5 6 -7 13 -3 12 8 -2 -12 -33 -47 -8 -9 -28 -36 -44 -59 -22 -32 -31 -39 -38 -28 -7 9 -8 7 -3 -8 3 -14 -2 -29 -17 -46 -13 -14 -24 -32 -26 -39 -2 -8 -12 -21 -22 -31 -11 -9 -20 -21 -20 -27 0 -16 -22 -25 -30 -11 -4 7 -6 47 -3 89 3 42 5 81 4 86 -1 6 -3 34 -5 63 -2 29 -8 58 -15 65 -14 14 -14 30 1 21 7 -4 8 -3 4 5 -6 9 -11 9 -22 0 -10 -8 -18 -8 -27 -1 -8 7 -18 6 -31 -4 -11 -8 -15 -14 -10 -14 6 0 15 4 22 10 7 5 5 2 -3 -7 -12 -14 -18 -15 -42 -3 -15 7 -34 12 -42 11 -7 -1 -11 2 -8 6 7 10 -118 7 -134 -3 -6 -4 -16 0 -21 7 -7 10 -9 8 -5 -8 3 -15 1 -20 -8 -16 -18 6 -60 -39 -90 -97 -15 -28 -19 -31 -31 -18 -8 8 -17 27 -19 44 -15 84 -19 100 -29 106 -8 5 -7 8 2 8 10 0 10 5 1 21 -7 14 -9 43 -5 81 8 70 15 90 27 82 5 -3 6 1 3 9 -6 17 56 84 91 97 28 11 154 8 173 -4 10 -6 10 -11 2 -21 -8 -9 -8 -15 0 -20 6 -4 9 -1 8 6 -2 6 3 14 11 17 9 3 11 0 6 -8 -5 -8 -4 -11 2 -7 9 6 67 -19 96 -40 7 -6 28 -16 47 -23 19 -8 38 -19 42 -24 10 -16 211 -17 220 -3 6 9 11 8 19 -3 8 -12 9 -10 4 8 -3 12 -3 22 2 22 5 0 9 9 9 19 0 11 -4 17 -9 14 -5 -3 -13 1 -18 8 -4 8 -24 14 -43 15 -20 1 -34 -2 -31 -6 3 -5 -4 -6 -16 -3 -17 5 -14 9 21 24 22 10 48 15 57 12 10 -4 14 -2 10 4 -8 13 38 23 105 23 52 0 112 -25 140 -59 23 -28 51 -82 44 -88 -2 -3 -1 -16 4 -28 5 -14 5 -37 0 -55 -5 -19 -5 -28 1 -25 12 8 11 0 -5 -40 -12 -27 -12 -33 -1 -29 7 3 16 -4 20 -16 8 -26 41 -19 67 14 19 22 26 115 14 171 -3 11 -5 30 -5 43 -1 13 -5 20 -11 17 -5 -3 -10 0 -10 7 0 17 -66 110 -86 121 -8 5 -11 13 -8 19 4 7 2 8 -4 4 -7 -4 -12 -2 -12 3 0 6 -12 11 -26 11 -14 0 -23 4 -20 8 11 18 -167 18 -219 -1 -22 -8 -46 -12 -54 -9 -8 3 -11 0 -7 -7 5 -7 -1 -11 -16 -11 -13 0 -29 -5 -34 -10 -11 -11 -112 -32 -150 -32 -28 0 -95 32 -89 42 3 4 -2 11 -11 14 -8 3 -12 2 -9 -3 3 -5 -8 -3 -24 5 -17 8 -40 17 -53 20 -13 3 -32 8 -43 11 -11 2 -22 2 -25 0z m-724 -67 c66 -32 109 -78 135 -140 9 -25 14 -79 14 -182 l0 -148 155 0 155 0 18 -58 c13 -41 17 -90 17 -179 0 -121 0 -123 -22 -123 -23 0 -23 1 -23 156 l0 156 -231 0 c-256 0 -284 -5 -325 -64 -64 -90 -11 -198 98 -198 78 0 113 51 113 165 0 74 0 75 26 75 l27 0 -5 -83 c-3 -47 -13 -97 -21 -114 -50 -96 -172 -122 -251 -53 -45 40 -59 79 -54 145 9 102 87 166 211 173 l67 4 0 147 c0 168 -11 206 -76 259 -40 34 -117 62 -166 62 -27 0 -28 -2 -28 -48 0 -69 40 -146 93 -176 56 -33 97 -43 97 -24 0 24 -56 104 -93 132 -22 17 -34 33 -30 42 8 21 17 18 71 -31 47 -42 80 -100 96 -167 6 -26 4 -28 -23 -28 -56 0 -135 33 -177 75 -50 50 -74 116 -74 203 l0 65 72 -6 c51 -4 90 -15 134 -37z m925 -32 c140 -74 198 -91 270 -82 45 6 49 5 49 -14 0 -49 -162 -35 -272 24 -212 114 -264 125 -358 77 -93 -48 -126 -121 -117 -263 3 -53 17 -124 36 -187 17 -56 31 -120 31 -141 0 -24 12 -62 30 -98 17 -32 48 -126 70 -209 43 -159 77 -229 123 -255 46 -25 50 -14 91 203 14 72 49 162 69 174 4 2 15 -1 23 -8 13 -10 13 -14 0 -28 -26 -29 -47 -94 -62 -196 -27 -170 -60 -216 -135 -184 -64 26 -107 112 -158 317 -17 66 -55 200 -85 297 -69 221 -80 274 -74 377 5 95 25 142 83 200 51 51 104 68 191 64 65 -3 81 -8 195 -68z m545 44 c89 -45 136 -124 142 -239 5 -99 -2 -133 -27 -133 -18 0 -19 6 -14 75 8 97 -9 157 -60 212 -48 52 -118 78 -187 70 -26 -3 -90 -22 -143 -43 l-97 -37 -48 19 -47 18 55 8 c30 4 98 23 150 43 82 31 104 35 165 32 46 -3 84 -11 111 -25z m-1559 -56 c3 -6 3 -8 -2 -4 -4 4 -16 -3 -27 -15 l-19 -22 12 25 c11 23 11 24 -4 11 -18 -14 -20 -12 -11 12 6 16 40 12 51 -7z m77 -17 c23 -13 33 -25 29 -35 -3 -8 -2 -14 3 -13 24 4 36 -2 30 -16 -3 -8 -1 -15 5 -15 6 0 7 -5 4 -10 -8 -13 -50 30 -60 60 -6 18 -17 25 -38 21 -5 -1 -6 3 -3 8 4 5 0 12 -6 14 -7 3 -10 6 -6 6 4 1 23 -8 42 -20z m2109 -25 c38 -9 35 -28 -4 -20 -17 3 -38 6 -45 6 -8 0 -14 7 -14 16 0 10 6 14 18 10 9 -3 29 -8 45 -12z m59 -116 c-13 -55 -22 -125 -21 -172 l1 -79 21 26 c26 31 84 57 129 57 50 0 116 -37 146 -83 25 -37 27 -51 32 -163 5 -135 16 -160 70 -166 26 -3 40 -15 40 -35 0 -18 -55 -16 -90 2 -48 25 -60 61 -60 177 0 119 -14 159 -69 195 -66 45 -156 18 -193 -57 -15 -29 -18 -62 -18 -182 l0 -148 -26 0 c-21 0 -24 4 -19 20 3 11 4 20 1 20 -3 0 -15 -9 -26 -20 -40 -40 -137 -15 -155 39 -5 18 -7 18 -30 -5 -52 -52 -149 -69 -219 -40 -82 34 -145 149 -132 240 27 181 215 265 342 154 l36 -32 -4 35 c-2 29 0 34 20 37 l22 3 0 -181 c0 -179 0 -181 25 -205 27 -28 37 -30 66 -15 43 24 49 57 49 274 0 206 0 209 46 405 5 22 7 23 21 8 14 -14 14 -24 -5 -109z m-2249 79 c11 -4 21 -16 24 -27 3 -11 10 -17 16 -13 6 3 7 1 3 -6 -4 -6 -1 -14 8 -17 8 -3 17 -13 20 -21 5 -13 4 -14 -9 -3 -10 8 -15 9 -15 1 0 -17 -50 30 -68 64 -21 39 -26 67 -9 44 7 -8 20 -18 30 -22z m2193 3 c8 0 14 -7 14 -16 0 -10 -6 -14 -17 -10 -10 3 -30 8 -45 12 -39 9 -36 28 3 20 17 -3 38 -6 45 -6z m-23 -36 c15 -3 27 -11 27 -16 0 -6 -10 -8 -22 -4 -13 3 -33 6 -45 6 -14 0 -23 6 -23 16 0 10 6 14 18 10 9 -3 29 -8 45 -12z m-2008 -13 c-3 -5 -1 -12 5 -16 5 -3 10 -11 10 -18 0 -6 -6 -2 -14 8 -13 18 -13 35 0 35 3 0 3 -4 -1 -9z m2028 -31 c15 -14 -7 -17 -50 -8 -24 5 -43 14 -43 19 0 12 79 2 93 -11z m-10 -30 c4 0 7 -4 7 -10 0 -13 -15 -13 -63 1 -48 13 -39 30 10 18 21 -5 41 -9 46 -9z m-17 -30 c8 0 14 -7 14 -16 0 -10 -6 -14 -17 -10 -10 3 -30 8 -45 12 -39 9 -36 28 3 20 17 -3 38 -6 45 -6z m-1191 -129 c22 -10 46 -25 54 -34 20 -25 28 -21 23 13 -4 27 -1 30 22 30 l26 0 0 -183 c0 -171 1 -185 20 -205 24 -25 30 -26 64 -11 20 9 29 9 41 -1 23 -19 19 -27 -21 -40 -61 -21 -134 7 -134 52 0 25 -10 22 -44 -12 -37 -38 -85 -53 -152 -48 -71 6 -121 41 -159 109 -56 104 -35 226 52 298 63 52 138 64 208 32z m504 4 c33 -17 47 -45 29 -57 -19 -11 -25 -10 -32 7 -9 23 -40 18 -68 -12 -14 -16 -73 -92 -132 -170 -59 -79 -113 -143 -121 -143 -31 0 -24 23 27 87 30 38 89 117 132 176 92 126 112 140 165 112z m-704 -5 c-3 -5 -12 -10 -18 -10 -7 0 -6 4 3 10 19 12 23 12 15 0z m779 -184 c32 -36 48 -86 41 -125 -28 -152 -257 -181 -333 -43 l-24 42 24 9 c19 7 24 5 31 -13 23 -61 97 -95 166 -76 57 15 81 39 88 87 8 59 -16 94 -89 129 -67 32 -74 39 -59 58 9 11 23 7 73 -17 35 -16 71 -39 82 -51z m-158 22 c10 -12 14 -18 8 -15 -7 4 -18 -1 -25 -10 -12 -14 -12 -16 1 -8 20 12 50 14 56 3 3 -4 14 -8 25 -8 10 0 19 -5 19 -11 0 -5 5 -7 11 -3 7 4 10 1 7 -7 -3 -8 -11 -13 -17 -11 -16 3 -14 -3 6 -19 9 -8 14 -9 10 -3 -4 7 -1 14 7 17 8 3 17 -1 20 -9 3 -9 1 -12 -4 -9 -6 3 -10 2 -10 -4 0 -5 5 -13 10 -16 6 -4 3 -16 -10 -32 -11 -14 -20 -32 -20 -39 0 -18 -40 -27 -92 -20 -24 3 -47 5 -51 5 -5 1 -6 5 -3 10 3 5 -1 12 -10 15 -9 3 -14 12 -11 20 3 7 -3 20 -14 29 -10 9 -19 14 -19 10 0 -3 -2 -4 -5 -1 -10 9 7 38 18 31 7 -4 8 0 4 11 -6 14 -3 17 8 12 10 -3 13 -2 10 5 -6 8 39 79 49 79 2 0 11 -10 22 -22z m-1310 4 c-3 -5 1 -9 9 -9 8 0 12 4 9 9 -6 10 3 10 44 2 l30 -6 -4 -67 c-2 -36 -3 -70 -4 -76 0 -5 -5 -17 -10 -25 -9 -13 -11 -13 -21 0 -9 13 -10 12 -5 -2 3 -12 -2 -22 -16 -29 -16 -9 -19 -8 -13 2 6 9 4 10 -6 3 -8 -5 -23 -9 -34 -9 -22 0 -74 47 -76 67 -1 7 -2 20 -3 28 -1 8 8 26 19 39 11 13 14 21 8 17 -7 -4 -13 -3 -13 1 0 5 19 21 42 36 45 29 52 32 44 19z m1438 -167 c-4 -8 -11 -15 -16 -15 -6 0 -5 6 2 15 7 8 14 15 16 15 2 0 1 -7 -2 -15z m106 -15 c-6 -11 -12 -20 -14 -20 -3 0 -1 23 3 38 1 1 6 2 11 2 7 0 7 -6 0 -20z m-390 -11 c0 -5 -4 -9 -10 -9 -5 0 -10 7 -10 16 0 8 5 12 10 9 6 -3 10 -10 10 -16z m65 -91 c-5 10 -1 10 20 0 19 -8 22 -14 13 -21 -8 -5 1 -7 25 -3 20 2 35 1 32 -4 -3 -4 11 -4 30 0 20 5 33 4 29 -1 -3 -5 0 -9 6 -9 6 0 9 -4 6 -9 -4 -5 4 -7 16 -4 20 4 21 3 6 -7 -9 -6 -15 -17 -12 -24 6 -15 -23 -124 -37 -142 -5 -6 -6 -14 -2 -17 3 -4 1 -7 -5 -7 -6 0 -9 -7 -6 -15 7 -18 -12 -20 -20 -2 -3 6 -3 2 0 -10 6 -24 -10 -32 -20 -10 -3 6 -3 2 0 -10 4 -17 1 -23 -10 -23 -16 0 -34 53 -56 170 -6 36 -22 87 -35 114 -27 56 -22 81 7 45 11 -13 17 -18 13 -11z m-525 7 c6 -8 9 -24 6 -37 l-6 -23 11 22 c11 21 13 22 26 5 8 -9 12 -11 8 -4 -7 14 0 15 42 3 22 -7 46 -5 78 4 25 8 45 10 45 5 0 -6 -5 -10 -12 -10 -6 0 -9 -3 -5 -6 3 -4 0 -23 -7 -43 -8 -20 -19 -67 -25 -106 -7 -38 -15 -81 -18 -95 -4 -14 -7 -29 -7 -34 -1 -5 -9 -10 -18 -12 -20 -3 -61 43 -52 58 4 6 2 13 -2 17 -16 10 -44 84 -48 121 -2 19 -9 48 -15 63 -6 16 -11 36 -11 46 0 9 -5 22 -12 29 -8 8 -8 12 -1 12 6 0 16 -7 23 -15z m494 -69 c9 -27 23 -90 32 -140 17 -102 37 -156 56 -156 23 0 70 51 94 103 13 28 33 93 46 144 18 75 25 93 40 93 22 0 22 -7 -1 -100 -32 -125 -60 -189 -105 -236 -58 -61 -102 -58 -136 7 -6 11 -22 76 -35 145 -13 69 -31 139 -39 156 -20 38 -20 36 2 41 23 5 27 0 46 -57z m228 47 c-6 -2 -10 -9 -6 -14 3 -5 -2 -9 -10 -9 -9 0 -16 4 -16 9 0 10 18 19 35 19 6 0 4 -2 -3 -5z m214 -128 c32 -20 57 -80 48 -118 -16 -76 -102 -193 -179 -243 -14 -9 -25 -26 -25 -37 0 -20 1 -20 28 5 63 59 164 62 228 6 59 -52 68 -79 74 -216 5 -115 7 -125 29 -143 48 -39 148 -14 227 55 27 24 47 45 44 47 -3 2 -36 2 -73 -1 l-69 -5 23 -28 c18 -24 20 -31 8 -38 -26 -16 -37 -9 -63 43 -46 92 -30 185 44 258 86 87 202 93 303 16 21 -16 37 -36 37 -45 0 -17 -86 -131 -99 -131 -4 0 -22 -22 -40 -49 -112 -173 -322 -241 -396 -128 -10 16 -15 56 -17 137 -3 131 -20 172 -81 205 -51 27 -123 16 -159 -23 -39 -44 -48 -90 -48 -239 0 -126 -1 -133 -20 -133 -20 0 -20 7 -20 353 0 319 2 356 19 392 21 46 38 63 78 75 32 9 69 3 99 -15z m541 -37 c20 -19 25 -19 72 -7 47 12 54 11 99 -10 l48 -23 47 23 c43 21 50 22 98 10 47 -12 52 -12 72 7 25 24 74 45 81 34 8 -14 -13 -110 -32 -149 -26 -49 -75 -99 -127 -126 -48 -24 -171 -34 -230 -18 -62 16 -132 66 -164 116 -28 44 -58 156 -46 175 8 12 54 -5 82 -32z m-879 -333 c50 -23 55 -24 83 -10 28 15 29 15 29 -7 0 -17 -10 -27 -41 -40 -40 -17 -42 -17 -70 4 -42 32 -142 36 -185 9 -86 -54 -117 -157 -74 -246 50 -103 190 -137 273 -67 16 14 19 14 35 -2 16 -16 16 -18 -8 -37 -14 -10 -49 -26 -79 -35 -46 -14 -63 -15 -109 -4 -46 10 -65 22 -108 64 -44 45 -54 61 -64 110 -40 195 141 344 318 261z m1348 6 c23 -10 49 -29 57 -42 l16 -23 22 28 c45 57 127 71 193 33 72 -41 80 -62 86 -210 6 -150 14 -173 65 -183 25 -4 35 -11 35 -25 0 -32 -63 -25 -102 10 l-33 29 -5 134 c-3 79 -11 144 -19 159 -27 53 -102 74 -160 44 -51 -26 -61 -65 -61 -239 0 -149 -1 -156 -20 -156 -19 0 -20 7 -20 143 0 165 -9 206 -52 242 -28 24 -39 27 -82 22 -93 -9 -116 -62 -116 -269 0 -131 -1 -138 -20 -138 -18 0 -20 7 -20 78 l0 77 -18 -30 c-39 -64 -114 -114 -193 -129 -39 -7 -139 10 -139 24 0 17 24 23 99 24 86 2 121 16 174 71 47 49 70 126 71 242 1 89 2 93 24 93 17 0 22 -6 22 -27 l0 -26 23 21 c47 45 108 53 173 23z m-1246 -81 c-12 -8 -12 -10 -1 -10 8 0 12 -3 8 -6 -9 -9 -28 6 -22 17 4 5 12 9 18 9 7 0 6 -4 -3 -10z"/> <path d="M3355 3682 c-67 -43 -95 -93 -95 -168 0 -116 107 -204 211 -173 130 39 160 248 47 332 -39 29 -124 34 -163 9z m118 -14 c-2 -5 5 -8 15 -8 22 0 61 -57 65 -94 1 -11 7 -24 12 -28 6 -5 6 -8 -1 -8 -7 0 -10 -16 -8 -40 2 -27 -1 -38 -8 -33 -7 4 -9 0 -5 -10 3 -10 3 -17 -1 -17 -4 0 -15 -14 -25 -31 -16 -29 -20 -31 -55 -25 -27 5 -33 4 -22 -3 12 -8 8 -11 -15 -11 -17 0 -40 7 -51 15 -12 8 -25 11 -29 7 -5 -4 -5 -2 -2 4 4 7 -2 14 -13 17 -11 3 -20 13 -20 22 0 10 -5 13 -12 9 -8 -5 -7 0 2 11 9 11 10 16 3 11 -9 -5 -13 2 -14 26 -1 18 -2 40 -3 48 -1 8 7 25 18 37 11 13 16 26 13 30 -4 3 -7 1 -7 -5 0 -7 -5 -12 -10 -12 -6 0 -5 8 2 19 7 11 16 17 20 15 4 -3 8 1 8 9 0 24 61 54 106 53 23 -1 40 -4 37 -8z"/> <path d="M3447 3649 c7 -7 15 -10 18 -7 3 3 -2 9 -12 12 -14 6 -15 5 -6 -5z"/> <path d="M3520 3561 c0 -6 4 -13 10 -16 6 -3 7 1 4 9 -7 18 -14 21 -14 7z"/> <path d="M1576 3982 c-3 -5 1 -9 9 -9 8 0 12 4 9 9 -3 4 -7 8 -9 8 -2 0 -6 -4 -9 -8z"/> <path d="M1580 3956 c0 -2 8 -10 18 -17 15 -13 16 -12 3 4 -13 16 -21 21 -21 13z"/> <path d="M2401 3683 c-52 -26 -91 -95 -91 -160 0 -95 45 -159 130 -184 53 -16 120 9 158 59 23 30 27 47 30 111 2 64 -1 82 -20 115 -41 70 -132 96 -207 59z m74 -13 c-4 -6 3 -6 21 0 24 9 25 9 14 -5 -11 -13 -10 -15 6 -14 36 4 55 -1 49 -11 -3 -6 0 -13 9 -16 9 -3 12 -12 9 -21 -4 -10 -2 -14 4 -10 24 15 33 -106 12 -146 -6 -10 -14 -15 -19 -12 -6 3 -7 -1 -4 -9 3 -9 1 -16 -6 -16 -6 0 -9 -4 -5 -9 5 -9 -32 -27 -47 -23 -5 1 -8 -2 -8 -8 0 -13 -34 -13 -82 2 -24 7 -37 16 -34 24 3 8 0 11 -8 8 -38 -14 -72 135 -38 164 9 7 11 11 5 7 -22 -11 -14 6 19 44 33 38 122 82 103 51z"/> <path d="M2950 3570 c0 -5 5 -10 11 -10 5 0 7 5 4 10 -3 6 -8 10 -11 10 -2 0 -4 -4 -4 -10z"/> <path d="M2925 3529 c-4 -6 -5 -12 -2 -15 2 -3 7 2 10 11 7 17 1 20 -8 4z"/> <path d="M1580 3431 c0 -6 4 -13 10 -16 6 -3 7 1 4 9 -7 18 -14 21 -14 7z"/> <path d="M2941 3034 c0 -11 3 -14 6 -6 3 7 2 16 -1 19 -3 4 -6 -2 -5 -13z"/> <path d="M2436 3007 c3 -10 9 -15 12 -12 3 3 0 11 -7 18 -10 9 -11 8 -5 -6z"/> <path d="M3175 3096 c-28 -28 -37 -81 -33 -195 l3 -83 56 54 c65 62 99 122 99 173 0 69 -75 101 -125 51z m75 -6 c8 -5 11 -10 6 -10 -6 0 -2 -6 7 -12 14 -11 15 -19 6 -53 -12 -45 -27 -67 -39 -60 -5 3 -12 0 -16 -6 -5 -8 -3 -9 6 -4 8 5 11 3 8 -6 -3 -8 -12 -12 -19 -11 -8 2 -11 0 -7 -4 9 -8 -9 -34 -23 -34 -13 0 -11 157 1 165 6 4 8 10 5 15 -3 5 0 12 6 16 8 5 10 2 5 -7 -4 -8 -1 -6 6 4 15 19 26 21 48 7z"/> <path d="M3725 2736 c-62 -28 -101 -83 -106 -151 l-4 -40 100 0 99 0 53 69 c29 37 53 74 53 82 0 21 -74 54 -122 54 -24 -1 -56 -7 -73 -14z m125 -17 c27 -7 38 -30 26 -55 -6 -13 -15 -24 -19 -24 -5 0 -5 5 -1 12 4 7 3 8 -5 4 -6 -4 -9 -11 -6 -15 2 -4 -6 -21 -18 -37 -20 -27 -28 -29 -98 -32 -81 -4 -102 6 -77 35 11 14 11 15 0 9 -11 -6 -10 -2 1 20 38 73 114 105 197 83z"/> <path d="M3856 2683 c-6 -14 -5 -15 5 -6 7 7 10 15 7 18 -3 3 -9 -2 -12 -12z"/> <path d="M3787 3077 c23 -124 130 -209 263 -209 139 0 240 79 274 215 10 43 -11 32 -45 -23 -94 -153 -341 -152 -448 1 -35 51 -52 58 -44 16z m126 -120 c6 3 7 1 3 -5 -4 -7 -1 -12 8 -12 24 0 23 0 65 -15 30 -10 41 -11 45 -2 3 9 7 8 15 -3 8 -12 13 -12 23 -2 6 6 24 12 39 12 15 0 40 5 55 10 19 8 30 8 38 0 7 -7 6 -10 -4 -12 -28 -2 -35 -5 -74 -21 -22 -10 -41 -15 -44 -12 -2 2 -14 0 -25 -6 -13 -8 -17 -8 -13 0 4 6 -4 9 -21 7 -16 -2 -46 5 -68 15 -21 10 -45 19 -52 19 -8 0 -11 5 -8 10 3 6 1 10 -6 10 -6 0 -18 8 -25 18 -23 29 -15 34 13 8 15 -14 31 -22 36 -19z"/> <path d="M4088 2913 c7 -3 16 -2 19 1 4 3 -2 6 -13 5 -11 0 -14 -3 -6 -6z"/> <path d="M3892 3067 l-33 -12 28 -21 c62 -46 96 -58 168 -57 55 0 81 5 121 26 75 38 82 51 35 65 -51 16 -72 15 -99 -4 -13 -9 -39 -16 -58 -16 -19 0 -45 7 -59 16 -28 19 -57 19 -103 3z m303 -16 c5 -1 -1 -8 -14 -18 -31 -21 -101 -35 -101 -19 0 8 -3 8 -8 0 -8 -12 -71 -13 -90 0 -7 4 -16 6 -19 2 -5 -5 -33 18 -33 28 0 3 11 6 25 6 14 0 25 -5 25 -11 0 -5 5 -7 12 -3 8 5 9 2 4 -11 -5 -14 -3 -15 6 -7 7 5 29 9 48 7 19 -1 50 5 68 15 18 10 41 17 50 15 9 -2 21 -4 27 -4z"/> <path d="M4160 3040 c-9 -6 -10 -10 -3 -10 6 0 15 5 18 10 8 12 4 12 -15 0z"/> <path d="M3252 4087 c10 -8 14 -18 10 -22 -4 -5 -1 -5 6 -1 17 10 15 14 -10 26 -21 10 -21 10 -6 -3z"/> <path d="M2930 4046 c0 -2 7 -7 16 -10 8 -3 12 -2 9 4 -6 10 -25 14 -25 6z"/> <path d="M3145 4040 c6 -10 4 -12 -11 -6 -15 6 -17 5 -6 -5 9 -9 15 -10 23 -2 8 8 7 13 -2 18 -8 6 -10 4 -4 -5z"/> <path d="M3609 3853 c-13 -16 -12 -17 4 -4 16 13 21 21 13 21 -2 0 -10 -8 -17 -17z"/> <path d="M4066 3767 c3 -10 9 -15 12 -12 3 3 0 11 -7 18 -10 9 -11 8 -5 -6z"/> <path d="M3550 3749 c0 -5 5 -7 10 -4 6 3 10 8 10 11 0 2 -4 4 -10 4 -5 0 -10 -5 -10 -11z"/> <path d="M3130 3616 c0 -2 7 -7 16 -10 8 -3 12 -2 9 4 -6 10 -25 14 -25 6z"/> <path d="M3176 3608 c3 -5 10 -6 15 -3 13 9 11 12 -6 12 -8 0 -12 -4 -9 -9z"/> <path d="M2179 3263 c-13 -16 -12 -17 4 -4 9 7 17 15 17 17 0 8 -8 3 -21 -13z"/> <path d="M2232 3260 c-18 -29 -15 -38 4 -12 9 13 14 25 12 27 -2 2 -9 -5 -16 -15z"/> <path d="M2195 3250 c-3 -5 -1 -10 4 -10 6 0 11 5 11 10 0 6 -2 10 -4 10 -3 0 -8 -4 -11 -10z"/> <path d="M2688 3243 c7 -3 16 -2 19 1 4 3 -2 6 -13 5 -11 0 -14 -3 -6 -6z"/> <path d="M1285 3210 c-16 -31 -14 -104 5 -169 4 -16 6 -32 2 -35 -3 -3 0 -6 6 -6 6 0 9 -7 5 -15 -3 -9 -2 -15 3 -14 20 3 26 -2 16 -14 -8 -10 -5 -16 11 -27 19 -11 21 -11 12 1 -6 9 -3 8 5 -1 9 -9 28 -25 43 -34 15 -10 27 -26 27 -35 0 -13 2 -13 9 -2 6 10 10 10 16 1 4 -6 13 -9 21 -6 8 3 14 1 14 -5 0 -6 9 -8 21 -4 13 4 19 3 16 -3 -7 -10 27 -9 62 3 20 6 21 3 21 -47 0 -29 -4 -58 -8 -64 -7 -11 -102 -27 -151 -26 -15 0 -19 -3 -12 -7 8 -5 -1 -14 -26 -27 -21 -10 -42 -17 -46 -16 -5 1 -6 -2 -2 -8 3 -6 12 -7 18 -3 7 3 0 -6 -15 -22 -16 -15 -28 -32 -28 -37 0 -5 -3 -7 -7 -5 -7 5 -9 -4 -12 -58 -2 -35 4 -73 12 -81 4 -4 7 -15 7 -24 0 -9 9 -25 20 -35 11 -10 17 -22 14 -27 -3 -4 -2 -8 3 -7 4 1 28 -7 53 -19 25 -12 58 -22 74 -22 35 0 96 20 114 38 8 7 18 10 23 6 5 -3 8 -1 7 4 -2 6 2 9 7 9 6 -1 10 -7 9 -13 -1 -6 5 -11 12 -11 11 0 11 6 -2 26 -12 17 -14 26 -5 29 6 2 9 8 5 13 -3 5 -1 9 4 9 11 0 11 4 18 113 l6 87 87 1 c125 2 144 0 161 -18 13 -14 13 -15 -4 -9 -14 5 -16 3 -8 -6 5 -7 13 -85 16 -173 6 -181 8 -195 17 -195 4 0 10 -8 13 -17 11 -30 33 -64 39 -61 4 2 15 -5 27 -14 11 -10 20 -15 20 -12 0 4 7 1 15 -6 12 -10 16 -9 21 3 3 9 12 13 20 10 8 -3 11 -9 8 -14 -3 -5 2 -6 12 -2 15 5 15 7 0 15 -9 5 -16 19 -16 31 1 21 1 21 15 -3 8 -14 14 -19 15 -12 0 14 -59 72 -73 72 -4 0 -5 5 -2 10 3 6 1 10 -5 10 -7 0 -10 7 -7 14 4 11 1 13 -10 9 -11 -4 -14 -2 -9 5 4 7 4 18 -1 25 -4 6 -8 134 -8 283 l0 271 25 -10 c14 -6 30 -15 35 -20 7 -7 6 -7 -2 -3 -7 4 -13 4 -13 -1 1 -12 30 -48 30 -37 0 5 4 3 9 -4 6 -11 13 -8 29 13 11 14 23 31 26 38 3 9 8 8 16 -3 10 -13 11 -12 6 4 -4 13 -2 17 7 13 9 -3 13 3 13 17 -1 22 -23 51 -39 51 -11 0 -27 36 -20 47 2 4 -4 5 -14 1 -15 -6 -16 -4 -6 8 9 11 7 14 -13 15 -19 2 -22 -1 -14 -11 8 -10 6 -17 -9 -27 -12 -8 -18 -18 -14 -21 3 -4 1 -7 -5 -7 -6 0 -18 -7 -26 -16 -18 -17 -18 -18 -17 61 1 70 4 86 20 115 18 32 51 61 62 54 5 -3 12 2 15 10 3 9 10 13 15 11 12 -8 23 41 13 57 -5 7 -9 16 -10 21 -1 4 -2 10 -3 13 0 4 -8 1 -17 -6 -12 -11 -15 -11 -12 0 2 7 -3 15 -10 17 -7 3 -12 1 -11 -4 5 -30 -31 -43 -61 -21 -12 10 -13 10 -2 -2 17 -19 15 -33 -3 -26 -8 3 -14 2 -13 -2 3 -15 -15 -42 -28 -42 -8 0 -14 -9 -14 -21 0 -13 -4 -18 -12 -13 -7 5 -9 2 -5 -9 4 -11 2 -14 -9 -10 -7 3 -14 0 -14 -6 0 -6 5 -11 10 -11 7 0 7 -7 0 -21 -7 -11 -9 -27 -6 -35 3 -8 2 -13 -2 -10 -4 2 -7 -60 -7 -137 l0 -142 -121 -3 -121 -3 -2 133 c-1 73 -6 147 -12 164 -5 18 -9 36 -8 40 4 21 -2 35 -11 29 -5 -3 -10 -2 -10 3 0 5 -16 26 -35 47 -19 21 -32 42 -29 46 3 5 -3 6 -12 2 -12 -5 -15 -3 -9 6 6 10 2 11 -15 6 -13 -4 -20 -3 -17 2 8 13 -119 43 -182 43 -46 0 -52 -3 -66 -30z m124 0 c80 -13 148 -48 191 -96 57 -66 64 -92 64 -266 l0 -158 151 0 151 0 1 170 c1 162 2 173 27 223 27 56 60 86 114 105 30 10 32 10 32 -14 0 -15 -6 -24 -15 -24 -26 0 -94 -70 -105 -108 -6 -22 -10 -184 -10 -396 0 -344 1 -362 21 -403 11 -24 32 -52 46 -63 24 -19 26 -50 3 -50 -19 0 -89 81 -102 118 -9 25 -13 95 -13 220 l0 183 -242 -3 c-227 -3 -243 -4 -270 -24 -71 -53 -91 -125 -50 -185 40 -60 97 -74 155 -39 44 27 62 74 62 160 0 63 2 70 20 70 18 0 20 -7 20 -85 0 -54 -5 -96 -14 -113 -62 -119 -228 -126 -286 -11 -43 83 -15 183 64 236 34 23 54 28 119 31 l77 4 0 153 c0 178 -7 203 -74 262 -45 40 -85 56 -163 69 l-43 7 0 -56 c0 -89 40 -162 108 -196 42 -20 92 -34 92 -25 0 13 -74 116 -97 134 -22 17 -24 22 -13 35 12 14 18 11 52 -22 48 -47 84 -106 93 -154 l7 -36 -54 8 c-71 10 -99 21 -142 60 -58 51 -79 101 -84 202 -5 100 -12 96 107 77z m-14 -77 c9 -13 14 -13 20 -3 6 9 4 11 -6 5 -11 -6 -12 -5 -2 5 10 11 15 11 28 0 8 -7 15 -9 15 -4 0 5 7 -2 16 -14 8 -12 20 -22 26 -22 7 0 3 7 -8 16 -13 11 -10 10 14 -2 17 -10 32 -24 32 -32 0 -7 5 -10 10 -7 13 8 33 -43 23 -58 -4 -7 1 -5 12 3 17 14 17 13 10 -9 -4 -13 -3 -21 1 -18 5 3 10 -6 11 -20 1 -24 0 -24 -15 -9 -10 9 -22 31 -28 49 -7 20 -22 38 -43 47 -17 9 -29 19 -26 22 4 3 -3 9 -14 13 -12 3 -21 11 -21 17 0 6 -9 1 -20 -12 -20 -23 -29 -15 -10 8 6 8 5 8 -4 0 -8 -7 -17 -25 -20 -40 -3 -20 0 -27 17 -32 12 -3 18 -8 14 -12 -3 -4 6 -18 22 -33 15 -14 26 -32 23 -39 -3 -9 -10 -6 -23 9 -10 12 -19 19 -19 14 0 -4 -7 -2 -15 5 -9 7 -14 19 -11 26 3 9 0 11 -11 7 -11 -4 -14 -3 -9 5 4 7 0 26 -8 43 -14 28 -14 30 1 25 15 -6 15 -5 0 12 -10 11 -15 26 -11 36 8 20 14 20 29 -1z m143 -108 c-3 -3 -9 2 -12 12 -6 14 -5 15 5 6 7 -7 10 -15 7 -18z m604 -117 c2 -13 15 -29 31 -36 31 -15 36 -32 9 -32 -23 0 -42 -19 -42 -42 0 -28 -14 -21 -27 12 -8 20 -18 30 -32 30 -12 0 -21 6 -21 15 0 9 9 15 21 15 14 0 24 10 32 30 14 36 24 39 29 8z m-553 -285 c-1 -5 -1 -10 0 -13 6 -16 5 -117 -1 -114 -3 2 -4 -4 -2 -14 6 -19 -38 -72 -44 -54 -2 7 -8 12 -13 12 -6 0 -7 -4 -4 -10 3 -5 1 -10 -5 -10 -6 0 -8 -5 -4 -11 5 -8 1 -8 -14 0 -26 14 -35 14 -27 1 9 -15 0 -12 -23 9 -12 10 -22 24 -22 30 0 7 -5 9 -11 5 -8 -4 -9 1 -4 16 5 15 4 20 -3 16 -7 -4 -10 1 -7 11 9 50 18 72 25 68 4 -3 10 4 13 14 7 27 150 70 146 44z"/> <path d="M2113 2865 c-10 -10 -9 -16 1 -24 10 -8 16 -8 25 3 16 19 -9 40 -26 21z"/> <path d="M2616 2977 c3 -10 9 -15 12 -12 3 3 0 11 -7 18 -10 9 -11 8 -5 -6z"/> <path d="M2085 2940 c-3 -5 -1 -10 4 -10 6 0 11 5 11 10 0 6 -2 10 -4 10 -3 0 -8 -4 -11 -10z"/> <path d="M2326 2923 c-6 -14 -5 -15 5 -6 7 7 10 15 7 18 -3 3 -9 -2 -12 -12z"/> <path d="M2295 2819 c-27 -5 -56 -10 -62 -11 -7 -1 -13 -5 -13 -10 0 -4 -5 -8 -12 -8 -6 0 -21 -8 -32 -17 -12 -10 -15 -11 -8 -3 6 8 12 19 12 25 0 5 -5 2 -11 -7 -5 -10 -9 -20 -9 -23 1 -3 -13 -22 -29 -41 -17 -19 -31 -43 -31 -54 0 -10 -3 -21 -8 -23 -4 -3 -8 -31 -10 -62 -4 -74 22 -147 70 -196 20 -20 34 -40 30 -44 -4 -4 -2 -5 3 -4 13 4 58 -11 65 -21 5 -8 57 -13 115 -11 17 1 43 12 59 26 16 14 33 25 38 25 5 0 6 6 2 13 -7 12 45 -30 57 -47 9 -11 57 -17 89 -10 14 3 34 17 45 32 12 17 13 22 4 15 -14 -11 -16 -9 -14 16 1 23 -2 27 -17 23 -11 -2 -18 1 -18 9 0 11 -2 11 -10 -1 -6 -10 -10 -11 -10 -2 0 6 -7 12 -15 12 -19 0 -21 20 -9 100 3 25 2 31 -5 20 -7 -10 -10 1 -9 40 0 30 5 58 11 63 8 4 9 10 2 15 -6 4 -10 34 -10 66 0 34 -5 65 -12 72 -7 6 -10 14 -8 16 13 12 -36 0 -58 -15 -25 -16 -27 -16 -36 1 -6 9 -11 14 -11 10 0 -4 -19 -1 -41 7 -23 8 -42 14 -43 14 0 -1 -23 -6 -51 -10z m142 -58 l43 -31 0 25 c0 14 4 25 9 25 5 0 16 3 25 6 14 5 16 -14 16 -180 0 -176 1 -187 21 -207 13 -13 29 -19 44 -17 18 4 24 0 28 -19 4 -21 1 -23 -36 -23 -31 0 -48 7 -69 27 -15 15 -28 34 -28 42 0 10 -10 5 -32 -16 -40 -37 -61 -48 -110 -57 -81 -15 -181 44 -219 129 -25 55 -24 147 2 205 27 60 45 79 104 107 68 33 141 27 202 -16z"/> <path d="M2245 2731 c-87 -54 -118 -157 -74 -248 32 -66 80 -98 148 -98 100 0 161 70 161 186 0 111 -61 179 -162 179 -24 0 -56 -8 -73 -19z m140 -15 l28 -15 -26 -6 c-15 -4 -34 -4 -42 -1 -9 3 -13 2 -10 -4 7 -12 -31 -12 -60 -1 -14 6 -29 2 -50 -12 l-30 -21 30 32 c17 17 32 26 33 21 2 -5 8 -9 13 -9 6 0 8 4 4 9 -13 21 72 26 110 7z m-94 -56 c13 -8 31 -8 58 0 47 12 70 5 82 -28 9 -23 7 -35 -32 -184 -14 -54 -43 -52 -55 3 -11 50 -25 51 -39 2 -11 -41 -38 -55 -50 -26 -13 33 -45 166 -45 186 0 24 27 57 47 57 8 0 23 -5 34 -10z m-71 -199 c0 -8 -3 -11 -7 -7 -8 8 -9 13 -12 40 0 8 -8 22 -18 31 -13 13 -13 19 -4 25 8 5 9 10 3 14 -6 3 -8 16 -5 27 4 16 11 2 24 -47 10 -38 19 -75 19 -83z m114 -49 c3 -5 -1 -9 -9 -9 -8 0 -12 4 -9 9 3 4 7 8 9 8 2 0 6 -4 9 -8z"/> <path d="M2242 2638 c-7 -7 -12 -21 -12 -32 0 -22 37 -166 44 -173 2 -2 10 15 17 39 19 59 47 59 70 -1 l16 -44 21 93 c16 67 19 97 12 111 -13 22 -50 26 -50 4 0 -8 -5 -15 -10 -15 -6 0 -27 7 -47 15 -43 18 -46 18 -61 3z m86 -38 c10 0 24 -6 31 -12 10 -11 11 -9 5 6 -5 13 -4 17 4 12 7 -4 12 -2 12 4 0 6 5 8 10 5 6 -4 7 -13 1 -23 -4 -9 -6 -23 -4 -29 3 -7 0 -13 -7 -13 -6 0 -9 -4 -5 -9 3 -5 1 -12 -4 -16 -14 -8 -51 26 -44 39 4 6 2 7 -3 3 -5 -5 -9 -13 -9 -19 0 -6 -10 -17 -21 -25 -20 -13 -21 -12 -20 9 1 13 -4 29 -10 35 -7 7 -11 21 -9 30 2 10 4 22 4 27 1 4 12 1 26 -8 13 -9 33 -16 43 -16z"/> <path d="M2335 2580 c3 -5 8 -10 11 -10 2 0 4 5 4 10 0 6 -5 10 -11 10 -5 0 -7 -4 -4 -10z"/> <path d="M2967 2809 c7 -7 15 -10 18 -7 3 3 -2 9 -12 12 -14 6 -15 5 -6 -5z"/> <path d="M3960 2800 c-8 -5 -10 -10 -5 -10 6 0 17 5 25 10 8 5 11 10 5 10 -5 0 -17 -5 -25 -10z"/> <path d="M3423 2785 c0 -8 4 -15 9 -15 4 0 8 4 8 9 0 6 -4 12 -8 15 -5 3 -9 -1 -9 -9z"/> <path d="M4350 2796 c0 -2 8 -10 18 -17 15 -13 16 -12 3 4 -13 16 -21 21 -21 13z"/> <path d="M2746 2672 c-2 -4 4 -8 14 -8 10 0 16 4 14 8 -3 4 -9 8 -14 8 -5 0 -11 -4 -14 -8z"/> <path d="M2750 2490 c-8 -5 -12 -12 -9 -15 4 -3 12 1 19 10 14 17 11 19 -10 5z"/> <path d="M3930 2486 c0 -2 8 -10 18 -17 15 -13 16 -12 3 4 -13 16 -21 21 -21 13z"/> <path d="M2679 2353 c-13 -16 -12 -17 4 -4 16 13 21 21 13 21 -2 0 -10 -8 -17 -17z"/> <path d="M3390 2361 c0 -6 4 -13 10 -16 6 -3 7 1 4 9 -7 18 -14 21 -14 7z"/> <path d="M2868 2283 c7 -3 16 -2 19 1 4 3 -2 6 -13 5 -11 0 -14 -3 -6 -6z"/> <path d="M3818 2283 c6 -2 18 -2 25 0 6 3 1 5 -13 5 -14 0 -19 -2 -12 -5z"/> <path d="M2005 2121 c-3 -5 -2 -12 3 -15 5 -3 9 1 9 9 0 17 -3 19 -12 6z"/> </g> </svg>